<svg class="disnone" xmlns="http://www.w3.org/2000/svg">
<symbol id="icon-arrow-down" viewBox="-7.1 -4 14.1 8.1">
	<path style="fill:currentColor;" d="M6-3.8L6-3.8l-6.4,6.7c-0.2,0.3-0.2,0.7,0,0.9l0,0c0.2,0.3,0.6,0.3,0.9,0l6.4-6.7
		c0.2-0.3,0.2-0.7,0-0.9l0,0C6.6-4.1,6.2-4.1,6-3.8L6-3.8z M0.4,2.9L0.4,2.9L-6-3.8c-0.2-0.3-0.6-0.3-0.9,0l0,0
		c-0.2,0.3-0.2,0.7,0,0.9l6.4,6.7c0.2,0.3,0.6,0.3,0.9,0l0,0C0.7,3.6,0.7,3.2,0.4,2.9L0.4,2.9z M0.4,2.9"/>
</symbol>
<symbol id="icon-arrow-down-wide" viewBox="-7 -4 14 8">
	<path style="fill:currentColor;" d="M-6.7-3.7c-0.4,0.4-0.4,1,0,1.4l6,6c0.4,0.4,1,0.4,1.4,0l0,0c0.4-0.4,0.4-1,0-1.4l-6-6
		C-5.7-4.1-6.3-4.1-6.7-3.7L-6.7-3.7L-6.7-3.7z M6.7-3.7c-0.4-0.4-1-0.4-1.4,0l-6,6c-0.4,0.4-0.4,1,0,1.4l0,0c0.4,0.4,1,0.4,1.4,0
		l6-6C7.1-2.7,7.1-3.3,6.7-3.7L6.7-3.7L6.7-3.7z M6.7-3.7"/>
</symbol>
<symbol id="icon-bus" viewBox="76.166 -11 19 22">
	<path fill="currentColor" d="M76.168,7.086V-9.749l0,0c0.003-0.689,0.575-1.248,1.283-1.25l0.001,0h16.427l0,0
	c0.707,0,1.28,0.557,1.287,1.245l0.002,0V7.139l0,0l0,0c0,0.692-0.574,1.255-1.284,1.256l-0.001,0.002h-0.479v1.128h-0.001
	C93.383,10.342,92.698,11,91.857,11c-0.855,0-1.546-0.676-1.546-1.51c0-0.023,0-0.048,0.002-0.072V8.397h-9.281v1.128h-0.002
	C81.011,10.342,80.326,11,79.483,11c-0.853,0-1.546-0.676-1.546-1.51c0-0.023,0-0.046,0.002-0.071V8.397h-0.48V8.396
	c0,0-0.003,0.001-0.005,0.001c-0.711,0-1.288-0.563-1.288-1.258C76.166,7.12,76.167,7.104,76.168,7.086L76.168,7.086z
	 M92.877,6.823c0.016,0.001,0.031,0.001,0.046,0.001c0.356,0,0.644-0.28,0.644-0.628V6.194V6.193V0.466H77.816v5.694
	c-0.001,0.012-0.001,0.023-0.001,0.035c0,0.348,0.288,0.629,0.643,0.629h0.004l0,0H92.877L92.877,6.823z M92.924-9.42h-0.027
	H78.471H78.46c-0.355,0-0.643,0.28-0.643,0.628v0.001l0,0v7.721h15.752v-7.685c0-0.014,0.001-0.024,0.001-0.037
	C93.568-9.14,93.281-9.42,92.924-9.42L92.924-9.42z M92.924-9.42"/>
	<path fill="currentColor" d="M90.313,5.748c1.175,0,2.129-0.933,2.129-2.079c0-1.145-0.955-2.077-2.129-2.077
	c-1.174,0-2.129,0.933-2.129,2.077C88.183,4.815,89.139,5.748,90.313,5.748L90.313,5.748z M90.313,3.164
	c0.286,0,0.519,0.227,0.519,0.507c0,0.279-0.232,0.507-0.519,0.507c-0.285,0-0.519-0.227-0.519-0.507
	C89.794,3.39,90.027,3.164,90.313,3.164L90.313,3.164z M90.313,3.164"/>
	<path fill="currentColor" d="M81.032,5.748c1.174,0,2.13-0.933,2.13-2.079c0-1.145-0.956-2.077-2.13-2.077
	c-1.174,0-2.129,0.933-2.129,2.077C78.903,4.815,79.859,5.748,81.032,5.748L81.032,5.748z M81.032,3.164
	c0.286,0,0.52,0.227,0.52,0.507c0,0.279-0.232,0.507-0.52,0.507c-0.287,0-0.519-0.227-0.519-0.507
	C80.514,3.39,80.745,3.164,81.032,3.164L81.032,3.164z M81.032,3.164"/>
</symbol>
<symbol id="icon-car" viewBox="-12.5 -11 25 22">
	<path style="fill:currentColor;" d="M10-1.6c1.3,0.6,2.1,1.9,2.2,3.3l0.3,3.6c0.1,1.6-0.7,3-2,3.5C10.1,10.1,9.1,11,7.8,11
		c-1.2,0-2.2-0.8-2.6-1.9H-5.3C-5.6,10.2-6.6,11-7.8,11c-1.3,0-2.3-0.9-2.6-2.2c-1.3-0.6-2.2-2-2-3.5l0.3-3.6c0.1-1.4,1-2.7,2.2-3.3
		l1.1-5.6C-8.4-9.3-6.5-11-4.5-11h8.9c2,0,4,1.7,4.4,3.7L10-1.6L10-1.6z M9.6,7.4c0.9-0.2,1.4-1,1.4-2l-0.3-3.6
		C10.6,0.9,10,0,9.1-0.3C8.8-0.3,8.6-0.6,8.5-0.9c0,0,0-0.1,0-0.1c0,0,0,0,0-0.1L7.4-6.9C7.1-8.3,5.8-9.4,4.5-9.4h-8.9
		c-1.3,0-2.6,1.1-2.9,2.5l-1.2,5.8c0,0,0,0,0,0.1c0,0,0,0.1,0,0.1c0,0.3-0.2,0.6-0.5,0.7C-10,0-10.6,0.9-10.7,1.8L-11,5.4
		c-0.1,1,0.5,1.8,1.4,2C-9.3,7.5-9,7.8-9,8.2c0,0.7,0.6,1.2,1.2,1.2c0.6,0,1.1-0.5,1.2-1.2c0-0.4,0.4-0.7,0.8-0.7H5.9
		c0.4,0,0.7,0.3,0.8,0.7c0.1,0.7,0.6,1.2,1.2,1.2C8.5,9.4,9,8.9,9,8.2C9,7.8,9.3,7.5,9.6,7.4L9.6,7.4z M9.6,7.4"/>
	<path style="fill:currentColor;" d="M5.1,3.7c0-0.5,0.2-1,0.5-1.3c0.3-0.3,0.8-0.5,1.2-0.5c0.5,0,0.9,0.2,1.2,0.5s0.5,0.8,0.5,1.3
		c0,0.5-0.2,1-0.5,1.3C7.7,5.4,7.3,5.6,6.8,5.6C6.4,5.6,5.9,5.4,5.6,5C5.3,4.7,5.1,4.2,5.1,3.7L5.1,3.7z M5.1,3.7"/>
	<path style="fill:currentColor;" d="M-5.9-0.9c-0.3,0-0.5-0.1-0.7-0.3c-0.2-0.2-0.2-0.5-0.2-0.7c0,0,0,0,0-0.1l0.9-4.2
		c0.1-0.7,0.7-1.2,1.4-1.2h8.8c0.6,0,1.3,0.6,1.4,1.2L6.7-2c0,0,0,0,0,0.1c0,0.3,0,0.6-0.2,0.8C6.4-1,6.2-0.9,5.9-0.9H-5.9L-5.9-0.9
		z M-4.3-5.8l-0.7,3.4H5.1L4.3-5.8H-4.3L-4.3-5.8z M-4.3-5.8"/>
	<path style="fill:currentColor;" d="M-8.5,3.7c0-0.5,0.2-1,0.5-1.3c0.3-0.3,0.8-0.5,1.2-0.5c0.5,0,0.9,0.2,1.2,0.5
		c0.3,0.3,0.5,0.8,0.5,1.3c0,0.5-0.2,1-0.5,1.3c-0.3,0.3-0.8,0.5-1.2,0.5C-7.3,5.6-7.7,5.4-8,5C-8.3,4.7-8.5,4.2-8.5,3.7L-8.5,3.7z
		 M-8.5,3.7"/>
</symbol>
<symbol id="icon-clock" viewBox="-12.2 -12 24.5 24.1">
	<path style="fill:currentColor;" d="M12.2,0c0,1.6-0.3,3.2-1,4.7c-0.6,1.4-1.5,2.7-2.6,3.8c-1.1,1.1-2.4,2-3.9,2.6C3.3,11.7,1.7,12,0,12
		c-1.7,0-3.3-0.3-4.8-0.9c-1.5-0.6-2.8-1.5-3.9-2.6s-2-2.4-2.6-3.8c-0.6-1.5-1-3.1-1-4.7c0-1.6,0.3-3.2,1-4.7
		c0.6-1.4,1.5-2.7,2.6-3.8c1.1-1.1,2.4-2,3.9-2.6C-3.3-11.7-1.7-12,0-12c1.7,0,3.3,0.3,4.8,0.9c1.5,0.6,2.8,1.5,3.9,2.6
		c1.1,1.1,2,2.4,2.6,3.8C11.9-3.2,12.2-1.6,12.2,0z M6.1,2c0-1.1-0.9-2-2-2C4.1,0,0,0,0,0l0-6h0c0-1.1-0.9-2-2-2c-1.1,0-2,0.9-2,2
		c0,0,0,0,0,0c0,0.4,0,7.9,0,8c0,1.1,0.9,2,2,2C-2,4,4,4,4.1,4C5.2,4,6.1,3.1,6.1,2z"/>
</symbol>
<symbol id="icon-close" viewBox="-10 -10 20 20">
	<path style="fill:currentColor;" d="M4-3L3-4l-7,7l1,1L4-3z"/>
	<path style="fill:currentColor;" d="M3,4l1-1l-7-7l-1,1L3,4z"/>
	<path style="fill:currentColor;" d="M10,0c0,5.5-4.5,10-10,10c-5.5,0-10-4.5-10-10
		c0-5.5,4.5-10,10-10C5.5-10,10-5.5,10,0z M9,0c0-5-4-9-9-9c-5,0-9,4-9,9c0,5,4,9,9,9C5,9,9,5,9,0z"/>
</symbol>
<symbol id="icon-comment" viewBox="-13.232 -12.457 26.464 24.914">
	<path fill="none" stroke="currentColor" stroke-width="2.5" stroke-miterlimit="10" d="M-0.021-11.707L-0.021-11.707
	c-1.661,0-3.276,0.269-4.8,0.798c-1.471,0.512-2.799,1.247-3.943,2.182c-1.154,0.941-2.064,2.039-2.705,3.259
	c-0.672,1.282-1.012,2.635-1.012,4.023c0,1.339,0.317,2.638,0.946,3.86c0.598,1.164,1.453,2.214,2.541,3.119
	c1.986,1.655,4.604,2.695,7.439,2.972c0.455,0.678,1.039,1.25,1.775,1.738c0.889,0.59,2.006,1.054,3.411,1.418
	c0.122,0.031,0.244,0.046,0.364,0.046c0.472,0,0.923-0.23,1.186-0.627c0.327-0.498,0.283-1.145-0.114-1.596
	C4.565,8.91,4.294,8.424,4.147,8.013c0.858-0.241,1.682-0.557,2.457-0.944c1.161-0.579,2.188-1.302,3.054-2.15
	c0.89-0.87,1.584-1.845,2.065-2.902c0.505-1.106,0.759-2.272,0.759-3.463c0-1.388-0.343-2.743-1.022-4.026
	c-0.644-1.22-1.559-2.317-2.719-3.258c-1.15-0.934-2.482-1.666-3.957-2.179C3.257-11.438,1.64-11.707-0.021-11.707L-0.021-11.707z
	 M-0.021-11.707"/>
</symbol>
<symbol id="icon-cross" viewBox="-33 -33 66 66">
	<path style="fill:#FFFFFF;" d="M0,33c1.1,0,2-0.9,2-2v-62c0-1.1-0.9-2-2-2s-2,0.9-2,2v62
		C-2,32.1-1.1,33,0,33z"/>
	<path style="fill:#FFFFFF;" d="M-31,2h62c1.1,0,2-0.9,2-2c0-1.1-0.9-2-2-2h-62
		c-1.1,0-2,0.9-2,2C-33,1.1-32.1,2-31,2z"/>
</symbol>
<symbol id="icon-heart-hollow" viewBox="-13.994 -13 27.988 26">
	<path fill="none" stroke="currentColor" stroke-width="1.5" stroke-miterlimit="10" d="M-0.001,12c-0.328,0-0.658-0.108-0.939-0.325
	c-0.292-0.223-7.191-5.544-9.936-9.82c-0.944-1.472-2.118-3.304-2.118-5.916c0-4.378,3.279-7.939,7.31-7.939
	c2.237,0,4.316,1.114,5.683,2.952C1.368-10.886,3.446-12,5.683-12c4.031,0,7.311,3.562,7.311,7.939
	c0,2.611-1.175,4.443-2.121,5.916c-2.743,4.276-9.644,9.597-9.936,9.82C0.657,11.892,0.329,12-0.001,12L-0.001,12z"/>
</symbol>
<symbol id="icon-heart-hollow-bold" viewBox="-13.994 -13 27.988 26">
	<path fill="none" stroke="currentColor" stroke-width="2.5" stroke-miterlimit="10" d="M-0.001,12c-0.328,0-0.658-0.108-0.939-0.325
	c-0.292-0.223-7.191-5.544-9.936-9.82c-0.944-1.472-2.118-3.304-2.118-5.916c0-4.378,3.279-7.939,7.31-7.939
	c2.237,0,4.316,1.114,5.683,2.952C1.368-10.886,3.446-12,5.683-12c4.031,0,7.311,3.562,7.311,7.939
	c0,2.611-1.175,4.443-2.121,5.916c-2.743,4.276-9.644,9.597-9.936,9.82C0.657,11.892,0.329,12-0.001,12L-0.001,12z"/>
</symbol>
<symbol id="icon-heart-solid" viewBox="-13 -12 26 24">
    <path style="fill:currentColor;" d="M5.7-11.3c-2,0-3.8,1-5.1,2.6L0-7.8l-0.6-0.8
        c-1.3-1.7-3.1-2.6-5.1-2.6c-3.6,0-6.6,3.2-6.6,7.2c0,2.4,1.1,4,2,5.5c2.7,4.2,9.7,9.6,9.8,9.6c0.1,0.1,0.3,0.2,0.5,0.2
        c0.2,0,0.3-0.1,0.5-0.2c0.1-0.1,7-5.4,9.8-9.6c0.9-1.5,2-3.1,2-5.5C12.2-8,9.3-11.3,5.7-11.3z"/>
    <path style="fill:currentColor;" d="M0,10.5L0,10.5C0.1,10.4,7,5.1,9.6,1c0.9-1.4,1.9-2.9,1.9-5.1c0-3.6-2.6-6.4-5.8-6.4
        c-1.7,0-3.4,0.9-4.5,2.3L0-6.5l-1.2-1.6c-1.1-1.5-2.7-2.3-4.5-2.3c-3.2,0-5.8,2.9-5.8,6.4c0,2.2,1,3.7,1.9,5.1
        C-7,5.1-0.3,10.3,0,10.5 M0,12c-0.3,0-0.7-0.1-0.9-0.3c-0.3-0.2-7.2-5.5-9.9-9.8C-11.8,0.4-13-1.4-13-4.1c0-4.4,3.3-7.9,7.3-7.9
        c2.2,0,4.3,1.1,5.7,3c1.4-1.8,3.4-3,5.7-3c4,0,7.3,3.6,7.3,7.9c0,2.6-1.2,4.4-2.1,5.9c-2.7,4.3-9.6,9.6-9.9,9.8
        C0.7,11.9,0.3,12,0,12L0,12z"/>
</symbol>
<symbol id="icon-logo2" viewBox="-6.691 -6.691 13.382 13.382">
	<path fill="#E60012" d="M1.911-2.866c0.528,0,0.956-0.428,0.956-0.956c0-0.528,0.428-0.956,0.956-0.956
	c0.526,0,0.953,0.425,0.955,0.951V3.82h1.912v-7.65h0C6.687-5.411,5.405-6.691,3.824-6.691c-1.584,0-2.868,1.284-2.868,2.868
	C0.956-3.295,1.384-2.866,1.911-2.866z"/>
	<g>
		<path fill="#E60012" d="M2.868-5.739c1.056,0,1.912,0.855,1.912,1.912l0,0v7.62V3.82v0.006C4.778,4.352,4.351,4.78,3.824,4.78
		c-0.528,0-0.956-0.429-0.956-0.956H0.956c0,1.583,1.284,2.868,2.868,2.868c1.575,0,2.854-1.272,2.867-2.844h0.001V3.82V3.792
		V-3.83h0C6.687-5.411,5.405-6.691,3.824-6.691c-1.516,0-2.754,1.177-2.858,2.666C1.065-4.988,1.879-5.739,2.868-5.739z"/>
		<polygon fill="#E60012" points="0.956,-3.825 0.956,-3.823 0.956,-3.819 		"/>
	</g>
	<path fill="#E60012" d="M-4.78-3.745c0.003-0.525,0.429-0.951,0.956-0.951c0.528,0,0.955,0.429,0.955,0.956v1.912h0.005
	C-2.815-0.286-1.553,0.95,0,0.95c0.528,0,0.955,0.428,0.955,0.956v1.91h1.912V1.904c0-1.584-1.285-2.867-2.867-2.867
	c-0.528,0-0.957-0.427-0.957-0.957V-3.74c0-1.585-1.283-2.868-2.867-2.868c-1.554,0-2.815,1.236-2.864,2.779h-0.004v7.65h1.912
	V-3.745z"/>
	<path fill="#E60012" d="M-6.69,3.844C-6.68,5.418-5.4,6.691-3.824,6.691c1.584,0,2.867-1.284,2.867-2.868h0
	c0-0.003,0-0.005,0-0.007c0-0.528-0.429-0.957-0.955-0.957c-0.528,0-0.957,0.429-0.957,0.957c0,0.003,0.001,0.005,0.001,0.007
	h-0.001c0,0.527-0.427,0.956-0.955,0.956c-0.529,0-0.957-0.429-0.957-0.956V3.82h0.001v-7.565c0.003-0.525,0.429-0.951,0.956-0.951
	c0.528,0,0.955,0.429,0.955,0.956v1.912h0.005C-2.815-0.286-1.553,0.95,0,0.95c0.528,0,0.955,0.428,0.955,0.956v1.91h1.912V1.904
	c0-1.584-1.285-2.867-2.867-2.867c-0.528,0-0.957-0.427-0.957-0.957V-3.74c0-1.585-1.283-2.868-2.867-2.868
	c-1.554,0-2.815,1.236-2.864,2.779h-0.004v7.634V3.82v0.023H-6.69z"/>
	<path fill="#E60012" d="M-2.867,3.824h-0.001c0,0.007-0.002,0.013-0.002,0.02c-0.021,1.038-0.867,1.872-1.91,1.872
	c-1.049,0-1.899-0.846-1.911-1.892h0c0,1.583,1.284,2.868,2.868,2.868c1.584,0,2.867-1.284,2.867-2.868h0c0-0.003,0-0.005,0-0.007
	c0-0.528-0.429-0.957-0.955-0.957c-0.528,0-0.957,0.429-0.957,0.957C-2.868,3.819-2.867,3.821-2.867,3.824z"/>
	<path fill="#E60012" d="M-4.78-5.655c1.056,0,1.912,0.856,1.912,1.912c0,0.002-0.001,0.006-0.001,0.009v1.906h0.005
	C-2.815-0.286-1.553,0.95,0,0.95c0.528,0,0.955,0.428,0.955,0.956v1.91h1.912V1.904c0-1.584-1.285-2.867-2.867-2.867
	c-0.528,0-0.957-0.427-0.957-0.957V-3.74c0-1.585-1.283-2.868-2.867-2.868c-1.502,0-2.727,1.156-2.851,2.627
	C-6.557-4.924-5.755-5.655-4.78-5.655z"/>
	<path fill="#E60012" d="M0,0.95c0.528,0,0.955,0.428,0.955,0.956v1.829v0.081v0.045h0.002c0.021,1.566,1.295,2.831,2.866,2.831
	c1.583,0,2.867-1.284,2.867-2.868H6.676C6.562,4.771,5.758,5.506,4.779,5.506c-0.798,0-1.481-0.489-1.767-1.183
	C2.922,4.177,2.868,4.007,2.868,3.824V3.816V3.735V1.904c0-0.433-0.098-0.841-0.271-1.209C2.526,0.603,1.606-0.551-0.132-0.276
	c-2.163,0.342-2.67-1.298-2.729-1.524C-2.798-0.272-1.544,0.95,0,0.95z"/>
</symbol>
<symbol id="icon-logo" viewBox="-24.7 -22.2 49.4 44.5">
	<path style="fill:currentColor;" d="M-24.7,12.4c0,5.5,4.4,9.9,9.9,9.9s9.9-4.4,9.9-9.9l0,0V7.5c0,0,0-0.1,0-0.1c0-1.4-1.1-2.5-2.5-2.5
		c-1.4,0-2.5,1.1-2.5,2.5c0,0,0,0.1,0,0.1v4.8h0c0,2.7-2.2,4.9-4.9,4.9c-2.7,0-4.9-2.2-4.9-4.9l0,0v-24.7h0c0-2.7,2.2-4.9,4.9-4.9
		c2.7,0,4.9,2.2,4.9,4.9l0,0l0,0v5l0,0C-9.9-2-5.5,2.5,0,2.5v0l0,0c2.7,0,4.9,2.2,4.9,4.9l0,0v5h0c0,5.5,4.4,9.9,9.9,9.9
		c5.5,0,9.9-4.4,9.9-9.9v-24.7h0c0-5.5-4.4-9.9-9.9-9.9c-5.5,0-9.9,4.4-9.9,9.9l0,0v4.8c0,0,0,0.1,0,0.1C4.9-6,6-4.9,7.4-4.9
		c1.4,0,2.5-1.1,2.5-2.5c0,0,0-0.1,0-0.1v-4.8h0l0,0c0-2.7,2.2-4.9,4.9-4.9c2.7,0,4.9,2.2,4.9,4.9l0,0v24.7h0l0,0
		c0,2.7-2.2,4.9-4.9,4.9c-2.7,0-4.9-2.2-4.9-4.9l0,0v-5h0C9.9,2,5.5-2.5,0-2.5v0l0,0c-2.7,0-4.9-2.2-4.9-4.9l0,0h0v-5h0
		c0-5.5-4.4-9.9-9.9-9.9c-5.5,0-9.9,4.4-9.9,9.9L-24.7,12.4L-24.7,12.4z"/>
</symbol>
<symbol id="icon-man-solid" viewBox="216.6 -107.4 24.1 24.1">
	<path style="fill:currentColor;" d="M218.6-83.3c2.5,0,2.2,0,4,0c2.4,0,3.2,0,6,0l0,0l0,0c2,0,2.9,0,4,0c1.9,0,4.7,0,6.1,0
		c0.6,0,1.9-2.4,1.9-2.9c0-3-1.4-3.8-3.5-5.8c-1.2-1.1-2.6-2-4.3-2.5c0.4-0.3,0.8-0.5,1.1-0.9c1.4-1.3,2.2-3,2.2-4.9
		c0-1.9-0.9-3.7-2.2-4.9c-1.4-1.3-3.3-2-5.4-2l0,0l0,0c-2.1,0-4,0.8-5.4,2c-1.4,1.3-2.2,3-2.2,4.9c0,1.9,0.9,3.7,2.2,4.9
		c0.3,0.3,0.7,0.6,1.1,0.9c-1.6,0.6-3.1,1.4-4.3,2.5c-2.2,2-3.5,2.7-3.5,5.8C216.6-85.8,218.1-83.3,218.6-83.3z"/>
</symbol>
<symbol id="icon-man-walk" viewBox="-7.5 -11 15 22">
	<path style="fill:currentColor;" d="M-0.5-4.9c0.4,0,0.8-0.1,1.2-0.2c1.6-0.6,2.3-2.4,1.6-4l0,0c-0.7-1.6-2.6-2.3-4.1-1.7
		c-1.6,0.6-2.3,2.4-1.6,4C-2.9-5.6-1.7-4.9-0.5-4.9L-0.5-4.9z M-0.7-9.5c0.6,0,1.2,0.4,1.5,1l0,0c0.4,0.8,0,1.7-0.8,2
		C-0.7-6.1-1.6-6.5-2-7.3c-0.4-0.8,0-1.7,0.8-2C-1-9.5-0.8-9.5-0.7-9.5L-0.7-9.5z M-0.7-9.5"/>
	<path style="fill:currentColor;" d="M-4.1,11c0.2,0,0.5,0,0.7-0.1c0.9-0.2,1.2-0.9,1.4-1.4L-2,9.3c0.1-0.3,0.3-0.7,0.5-1
		C-1.3,7.7-1,7.2-0.7,6.6l0.1-0.2c0.2-0.3,0.3-0.7,0.5-0.9C0.1,5.3,0.4,5.2,0.7,5C0.9,4.9,1,4.8,1.2,4.7l0.3-0.2
		c0.3-0.2,0.6-0.4,0.9-0.7c0.1-0.1,0.7-0.7,0.9-1.5c0.1-0.2,0-0.4,0-0.8l0-0.3c0.1,0.2,0.2,0.4,0.4,0.6l0.2,0.3
		c0.2,0.4,0.8,1.2,1.7,1.3C6,3.5,6.4,3.3,6.8,3C7.4,2.3,7.3,1.3,7.2,1C7.1,0.4,7-0.2,6.8-0.7L6.8-0.9C6.7-1.3,6.5-1.8,6.2-2.3
		C6.1-2.5,5.9-2.7,5.7-2.9C5.6-3,5.5-3.1,5.5-3.2C4.6-4.2,3.5-5.1,2-6.1L1.7-6.4l-2.1,0.3h0C-0.7-4.7-0.9-5.6-1-5.5
		c-0.3,0.2-0.6,0.8-0.8,1.1C-2.2-4-2.4-3.7-2.6-3.3C-2.9-2.7-2.9-2-2.9-1.5l0,0.4c0,0.3,0,0.7,0,1c0,0.4,0,0.8,0,1.3
		c0,0.1,0,0.3,0,0.3c0,0-0.1,0.1-0.2,0.2c-0.1,0.1-0.2,0.1-0.3,0.2c-0.5,0.4-0.8,0.8-1.1,1.1C-5,3.8-5.5,4.6-5.8,5.4
		c-0.6,1.4-0.9,2.5-0.8,3.5c0.1,1,0.5,1.7,1.3,1.9C-4.9,10.9-4.5,11-4.1,11L-4.1,11z M0.1-4.1l1.3-0.4c1.3,0.8,2.2,1.5,2.8,2.3
		C4.3-2.1,4.4-2,4.5-1.9c0.1,0.1,0.3,0.3,0.4,0.4c0.2,0.2,0.2,0.5,0.3,0.9l0.1,0.3c0.1,0.5,0.3,1,0.4,1.5c0,0.3,0,0.5,0,0.7
		C5.5,1.8,5.4,1.6,5.3,1.4L5.1,1.1C4.7,0.5,4.4-0.1,4-0.8L3.8-1C3.8-1,3.7-1.1,3.6-1.3C3.4-1.6,3.2-1.7,2.9-1.8l-0.4,0L2.3-1.5
		C2-1.2,2.1-0.8,2.1-0.5l0.2,1.9v0.2C2.3,1.8,2,1.9,2,1.9C2,2.3,1.4,2.6,1.3,2.7C1.1,2.9,0.8,3.1,0.6,3.2L0.3,3.4
		C0.1,3.5,0,3.6-0.2,3.7c-0.4,0.2-0.8,0.5-1.1,0.9C-1.7,5-1.9,5.4-2.1,5.8l-0.1,0.1C-2.5,6.5-2.7,7.1-3,7.7
		c-0.2,0.4-0.3,0.7-0.5,1.1L-3.6,9c-0.2,0.4-0.2,0.4-0.3,0.4c-0.3,0.1-0.7,0-1.1-0.1c-0.1,0-0.2-0.2-0.2-0.5c0-0.7,0.2-1.7,0.7-2.8
		c0.3-0.7,0.7-1.4,1.2-2c0.2-0.3,0.5-0.6,0.9-0.9C-2.2,3-2.1,3-2.1,2.9c0.2-0.1,0.4-0.3,0.6-0.5C-1.1,2-1.2,1.5-1.2,1.1
		c0-0.4,0-0.8-0.1-1.3c0-0.3,0-0.7,0-1c0-0.1,0-0.3,0-0.4c0-0.4-0.1-0.8,0.1-1c0.1-0.3,0.3-0.5,0.6-0.8C-0.5-3.6-0.3-3.8,0-3.9
		L0.1-4.1L0.1-4.1z M0.1-4.1"/>
	<path style="fill:currentColor;" d="M5.3,10.9c0.5,0,0.9-0.1,1.3-0.4c0.6-0.4,0.8-0.9,0.8-1.2C7.6,8.7,7.3,8,6.7,7.2L3.8,3.5L2.5,4.4
		l2.9,3.7c0.5,0.6,0.5,0.9,0.5,1c0,0,0,0.1-0.2,0.2C5.4,9.5,4.9,9.4,4.7,9.1C4.3,8.7,3.9,8.2,3.6,7.7C3.1,7.1,2.7,6.4,2.3,5.8
		C2.3,5.7,2.2,5.5,2.1,5.4L0.7,6c0.1,0.2,0.2,0.4,0.3,0.6c0.4,0.7,0.8,1.3,1.3,2.1c0.4,0.5,0.8,1,1.2,1.5
		C3.9,10.6,4.6,10.9,5.3,10.9L5.3,10.9z M5.3,10.9"/>
	<path style="fill:currentColor;" d="M-5.8,2.2c0.5,0,0.9-0.1,1.2-0.3C-4.1,1.7-3.8,1.3-3.4,1C-3.3,0.9-3.2,0.8-3,0.7l-1-1.1
		c-0.1,0.1-0.3,0.3-0.4,0.4c-0.3,0.3-0.6,0.5-0.8,0.6c-0.2,0.1-0.6,0.1-0.6,0.2C-6,0.3-5.8,0-5.3-0.5C-5-0.7-4.7-0.9-4.4-1.1
		C-4-1.3-3.6-1.5-3.2-1.9L-4.3-3c-0.3,0.3-0.6,0.4-0.9,0.6C-5.5-2.2-6-1.9-6.4-1.6c-0.5,0.5-1.2,1.3-1.1,2.4c0,0.5,0.3,0.9,0.7,1.1
		C-6.5,2.1-6.2,2.2-5.8,2.2L-5.8,2.2z M-5.8,2.2"/>
</symbol>
<symbol id="icon-menu" viewBox="-15 -14 30 28">
	<path style="fill:currentColor;" d="M-15-12c0,1.1,0.9,2,2,2h26c1.1,0,2-0.9,2-2c0-1.1-0.9-2-2-2
		h-26C-14.1-14-15-13.1-15-12z"/>
	<path style="fill:currentColor;" d="M-15,0c0,1.1,0.9,2,2,2h26c1.1,0,2-0.9,2-2c0-1.1-0.9-2-2-2
		h-26C-14.1-2-15-1.1-15,0z"/>
	<path style="fill:currentColor;" d="M-15,12c0,1.1,0.9,2,2,2h26c1.1,0,2-0.9,2-2c0-1.1-0.9-2-2-2
		h-26C-14.1,10-15,10.9-15,12z"/>
</symbol>
<symbol id="icon-more" viewBox="-5 -24.3 10 48.6">
	<path fill="currentColor" d="M19.281,3.5c1.93,0,3.5-1.57,3.5-3.5s-1.57-3.5-3.5-3.5s-3.5,1.57-3.5,3.5S17.352,3.5,19.281,3.5
				 M19.281,5c-2.761,0-5-2.239-5-5c0-2.762,2.239-5,5-5c2.762,0,5,2.238,5,5C24.281,2.762,22.043,5,19.281,5L19.281,5z"/>
	<path fill="currentColor" d="M-0.031,3.5c1.93,0,3.5-1.57,3.5-3.5s-1.57-3.5-3.5-3.5s-3.5,1.57-3.5,3.5S-1.961,3.5-0.031,3.5
				 M-0.031,5c-2.762,0-5-2.239-5-5c0-2.762,2.238-5,5-5s5,2.238,5,5C4.969,2.762,2.73,5-0.031,5L-0.031,5z"/>
	<path fill="currentColor" d="M-19.281,3.5c1.93,0,3.5-1.57,3.5-3.5s-1.57-3.5-3.5-3.5c-1.93,0-3.5,1.57-3.5,3.5
				S-21.211,3.5-19.281,3.5 M-19.281,5c-2.761,0-5-2.239-5-5c0-2.762,2.239-5,5-5s5,2.238,5,5C-14.281,2.762-16.52,5-19.281,5
				L-19.281,5z"/>
</symbol>
<symbol id="icon-qq-share" viewBox="-22 -22 44 44">
	<path style="fill:currentColor;" d="M0-22c12.2,0,22,9.8,22,22c0,12.2-9.8,22-22,22c-12.2,0-22-9.8-22-22C-22-12.2-12.2-22,0-22L0-22z
		 M12.1,6.9c0.8-0.7,0.5-3.3-0.7-5.7c-0.3-0.6-0.5-1.1-0.8-1.5C10.4-7.5,5.8-13.2,0-13.2h0c-5.7,0-10.4,5.7-10.6,12.8
		c-0.3,0.4-0.6,0.9-0.8,1.5c-1.2,2.4-1.4,5-0.7,5.7c0.6,0.5,1.5-0.1,2.5-1.3c0.4,1.1,0.9,2.1,1.6,3c-1.3,0.5-2.2,1.2-2.2,2
		c0,1.4,2.5,2.6,5.7,2.6c1.9,0,3.5-0.4,4.6-1c1,0.6,2.7,1,4.6,1c3.1,0,5.7-1.2,5.7-2.6c0-0.8-0.9-1.6-2.2-2c0.6-0.9,1.1-1.9,1.6-3
		C10.6,6.8,11.5,7.4,12.1,6.9L12.1,6.9z M12.1,6.9"/>
</symbol>
<symbol id="icon-qq-sign" viewBox="-9.5 -10 19 20">
	<path style="fill:currentColor;" d="M9.5,3.6c0,0.5-0.1,1.2-0.3,1.6C8.9,5.6,8,5.1,7.3,3.8C7.2,4.4,6.7,5.3,5.8,6.5
		c1.5,0.3,2,1.8,1.5,2.5c-0.4,0.5-1.2,1-2.6,1c-2.6,0-3.7-0.6-4.2-1.1C0.3,8.8,0.2,8.8,0,8.8c-0.2,0-0.3,0-0.4,0.1
		C-0.9,9.4-2.1,10-4.6,10c-1.4,0-2.3-0.5-2.6-1c-0.5-0.8-0.1-2.2,1.5-2.5c-0.9-1.2-1.3-2.1-1.5-2.6C-8,5.1-8.9,5.6-9.2,5.2
		c-0.3-0.3-0.3-1.1-0.3-1.6C-9.3,1.7-8,0.1-7.2-0.8C-7.3-1-7.5-2.4-6.5-3.4c0,0,0,0,0-0.1C-6.5-7.3-3.6-10,0-10
		c3.6,0,6.5,2.7,6.5,6.5c0,0,0,0,0,0.1c1,1,0.8,2.4,0.7,2.6C8,0.1,9.3,1.7,9.5,3.6L9.5,3.6z M9.5,3.6"/>
</symbol>
<symbol id="icon-qrcode" viewBox="114.2 9.6 14 14">
	<path style="fill:#FFFFFF;" d="M120.2,9.6v6h-6v-6H120.2z M119.2,10.6h-4v4h4V10.6z"/>
	<path style="fill:#FFFFFF;" d="M128.3,9.6v6h-6v-6H128.3z M127.2,10.6h-4v4h4V10.6z"/>
	<path style="fill:#FFFFFF;" d="M128.3,17.6v6h-6v-6H128.3z M127.2,18.6h-4v4h4V18.6z"/>
	<path style="fill:#FFFFFF;" d="M120.2,17.6v6h-6v-6H120.2z M119.2,18.6h-4v4h4V18.6z"/>
	<path style="fill:#FFFFFF;" d="M116.2,13.6h2v-2h-2V13.6z"/>
	<path style="fill:#FFFFFF;" d="M124.2,13.6h2v-2h-2V13.6z"/>
	<path style="fill:#FFFFFF;" d="M116.2,21.6h2v-2h-2V21.6z"/>
</symbol>
<symbol id="icon-qzone-share" viewBox="-22 -22 44 44">
	<path style="fill:currentColor;" d="M0-22c12.2,0,22,9.8,22,22S12.2,22,0,22c-12.2,0-22-9.8-22-22S-12.1-22,0-22L0-22z M9.2,2.7l7.6-7.1
		c0.7-0.6,0.5-1.2-0.4-1.3l-10.3-1c-0.8-0.1-1-0.2-1.2-0.8l-4.4-9.7c-0.4-0.8-1.1-0.8-1.5,0l-4.7,9.7C-5.9-7-6.1-6.8-6.9-6.8
		l-9.9,1.1c-0.9,0.1-1.1,0.7-0.5,1.3l7.8,7.2c0.4,0.3,0.4,0.5,0.3,1l-2,10.5c-0.2,0.9,0.3,1.3,1.1,0.8l8.9-5.1
		c0.6-0.4,1.2-0.4,1.8,0l8.9,5.2c0.8,0.5,1.3,0.1,1.1-0.8L9.2,5.9c0.9-0.3,1.8-0.7,2.3-1.1l-0.2,0C8.2,5.6,3.8,6.1-0.2,6.1
		c-1.5,0-2.9-0.1-4.3-0.2l0,0C-5.7,5.8-6.9,5.7-8,5.6c-0.4-0.1,0-0.3,0-0.3L2.7-2.4c0,0,0.3-0.2,0-0.2c-4.4-0.7-9.3-0.9-13.9-0.9
		c-0.1,0-0.2,0-0.3,0c3.1-0.7,7-1.1,11.3-1.1c2.5,0,4.9,0.1,7.1,0.4c0,0,1.2,0.2,1.8,0.3c0.5,0.1,0,0.3,0,0.3L-2,3.8
		C-2,3.8-2.3,4-2,4C1.3,4.5,5.4,4.7,9,4.7L8.8,3.8C8.8,3.3,8.8,3.1,9.2,2.7L9.2,2.7z M9.2,2.7"/>
</symbol>
<symbol id="icon-renren-share" viewBox="-22 -22 44 44">
	<path style="fill:currentColor;" d="M-3.7-22L-3.7-22c-3.4,0.6-6.5,1.9-9.3,4c-2.8,2.1-5,4.7-6.6,7.8C-21.2-7.1-22-3.8-22-0.1
		c0,5.4,1.7,10.2,5.2,14.3c3.9-1.9,7.1-4.9,9.5-8.9c2.4-4,3.6-8.4,3.6-13.3V-22L-3.7-22z M10.5,19.3L10.5,19.3
		c-2.6-1.7-4.9-3.7-6.8-6.1c-1.9-2.4-3.1-5-3.8-7.8c-0.6,2.8-1.9,5.4-3.8,7.8c-1.9,2.4-4.1,4.4-6.7,6.1C-7.3,21.1-3.8,22-0.1,22
		C3.7,22,7.2,21.1,10.5,19.3L10.5,19.3z M22-0.1L22-0.1c0-3.6-0.8-7-2.4-10.1C18-13.4,15.8-16,13-18c-2.8-2.1-5.9-3.4-9.3-4v14
		c0,4.9,1.2,9.3,3.6,13.3c2.4,4,5.6,7,9.5,8.9C20.3,10,22,5.3,22-0.1L22-0.1z M22-0.1"/>
</symbol>
<symbol id="icon-search" viewBox="-13.9 -14.7 27.8 29.3">
	<path style="fill:currentColor;" d="M-1.9,9.3c6.7,0,12-5.3,12-12c0-6.7-5.3-12-11.9-12c-6.7,0-12.1,5.4-12.1,12.1
		C-13.9,4.1-8.6,9.3-1.9,9.3 M-1.8-11.7c5,0,8.9,4,8.9,9c0,5-4,9-9,9c-5,0-9-3.9-9-8.9C-10.9-7.6-6.8-11.7-1.8-11.7"/>
	<path style="fill:currentColor;" d="M12.4,14.6c0.5,0.1,0.9,0,1.2-0.3c0.6-0.6,0.4-1.7-0.4-2.5l-7-7C5.3,4,4.2,3.8,3.6,4.4
		C3.1,5,3.2,6.1,4,6.9l7,7C11.4,14.3,11.9,14.6,12.4,14.6"/>
</symbol>
<symbol id="icon-share" viewBox="48.6 -12 24 24">
<path style="fill:currentColor;" d="M68.5-3.7c-1.5,0-2.9-0.9-3.6-2.1l-8.3,3.2c0.2,0.5,0.3,1,0.3,1.5c0,0.8-0.3,1.6-0.7,2.3l5.7,3.8
		c0.7-0.7,1.8-1.2,2.9-1.2c2.3,0,4.1,1.9,4.1,4.1S67,12,64.7,12c-2.3,0-4.1-1.9-4.1-4.1c0-0.6,0.1-1.2,0.4-1.7l-5.9-3.9
		C54.5,2.7,53.6,3,52.8,3c-2.3,0-4.1-1.9-4.1-4.1c0-2.3,1.9-4.1,4.1-4.1c1.2,0,2.2,0.5,3,1.3l8.7-3.3c0-0.2,0-0.4,0-0.6
		c0-2.3,1.8-4.1,4.1-4.1c2.3,0,4.1,1.9,4.1,4.1C72.6-5.6,70.8-3.7,68.5-3.7L68.5-3.7z M52.8,1.5c1.4,0,2.6-1.2,2.6-2.6
		s-1.2-2.6-2.6-2.6c-1.4,0-2.6,1.2-2.6,2.6S51.3,1.5,52.8,1.5L52.8,1.5z M64.7,5.2c-1.4,0-2.6,1.2-2.6,2.6s1.2,2.6,2.6,2.6
		c1.4,0,2.6-1.2,2.6-2.6S66.2,5.2,64.7,5.2L64.7,5.2z M68.5-10.5c-1.4,0-2.6,1.2-2.6,2.6s1.2,2.6,2.6,2.6c1.4,0,2.6-1.2,2.6-2.6
		S69.9-10.5,68.5-10.5L68.5-10.5z M68.5-10.5"/>
</symbol>
<symbol id="icon-sina-share" viewBox="-22 -22 44 44">
	<path style="fill:currentColor;" d="M-2.9,6.1c-0.4,0.3-0.8,0.2-1-0.1C-4.1,5.7-4.1,5.2-3.7,5c0.4-0.3,0.9-0.2,1,0.1
		C-2.4,5.4-2.6,5.8-2.9,6.1L-2.9,6.1z M-6.3,9c-1.1,0.1-1.9-0.5-1.9-1.4c0-0.9,0.8-1.8,1.8-1.9c1.2-0.1,2,0.6,2,1.5
		C-4.4,8-5.2,8.9-6.3,9L-6.3,9z M-4.9,1.5c-5.7,0.7-5,6-5,6S-9.9,9.2-8.4,10c3.3,1.8,6.7,0.7,8.5-1.5C1.8,6.3,0.8,0.9-4.9,1.5
		L-4.9,1.5z M-3.7,12.4c-5.6,0.3-10.2-2.6-10.2-6.3c0-3.8,4.6-6.8,10.2-7C1.9-1.2,6.5,1.1,6.5,4.9C6.5,8.6,1.9,12.1-3.7,12.4
		L-3.7,12.4z M-22,0c0-12.2,9.8-22,22-22c12.1,0,22,9.8,22,22c0,12.2-9.9,22-22,22C-12.2,22-22,12.2-22,0L-22,0z M8.3,0.2
		c-1.3-0.3-0.7-1-0.7-1S8.9-3,7.3-4.5C5.4-6.5,0.7-4.3,0.7-4.3c-1.8,0.6-1.3-0.3-1.1-1.6c0-1.6-0.6-4.4-5.4-2.8
		c-4.8,1.6-8.9,7.4-8.9,7.4c-2.9,3.8-2.5,6.8-2.5,6.8c0.7,6.5,7.7,8.3,13.1,8.7c5.7,0.4,13.4-2,15.7-6.9C13.9,2.4,9.6,0.5,8.3,0.2
		L8.3,0.2z M11.1-2.1c0.5,0,0.8-0.3,0.9-0.8c0,0,0-0.1,0-0.1c0.7-6.2-5.1-5.2-5.1-5.2c-0.5,0-0.9,0.4-0.9,0.9c0,0.5,0.4,0.9,0.9,0.9
		C11-7.2,10.1-3,10.1-3C10.1-2.5,10.5-2.1,11.1-2.1L11.1-2.1z M10.4-13c-2-0.5-4.1-0.1-4.6,0c0,0-0.1,0-0.1,0.1c0,0,0,0,0,0
		c-0.6,0.2-1,0.7-1,1.3c0,0.7,0.6,1.4,1.4,1.4c0,0,0.7-0.1,1.2-0.3c0.5-0.2,4.6-0.1,6.7,3.3C15-4.6,14.4-3,14.3-2.7
		c0,0-0.3,0.7-0.3,1.3c0,0.7,0.6,1.2,1.3,1.2c0.6,0,1.1-0.1,1.3-1.1h0C18.9-8.7,14-12.1,10.4-13L10.4-13z M10.4-13"/>
</symbol>
<symbol id="icon-sina-sign" viewBox="-12.5 -10 25 20">
	<path style="fill:currentColor;" d="M6-0.3c1,0.2,4,1.6,2.4,5.2C6.7,8.5,1.1,10.3-3,10c-3.9-0.3-9-1.6-9.5-6.4c0,0-0.3-2.2,1.8-4.9
		c0,0,3-4.2,6.5-5.4c3.5-1.2,3.9,0.8,3.9,2c-0.2,1-0.5,1.6,0.8,1.2c0,0,3.4-1.6,4.8-0.2C6.5-2.5,5.5-1,5.5-1S5-0.5,6-0.3L6-0.3z
		 M-2.7,8.6c4.1-0.2,7.4-2.8,7.4-5.5c0-2.7-3.3-4.4-7.4-4.2c-4.1,0.2-7.4,2.4-7.4,5.1C-10.1,6.8-6.8,8.8-2.7,8.6L-2.7,8.6z
		 M-2.7,8.6"/>
	<path style="fill:currentColor;" d="M-3.5,0.7c4.1-0.5,4.9,3.5,3.6,5.1c-1.3,1.6-3.7,2.4-6.1,1.1C-7.2,6.3-7.2,5-7.2,5S-7.6,1.2-3.5,0.7
		L-3.5,0.7z M-4.6,6.1C-3.8,6-3.2,5.4-3.2,4.8c0-0.6-0.6-1.2-1.5-1.1c-0.8,0.1-1.3,0.8-1.3,1.4C-5.9,5.8-5.3,6.2-4.6,6.1L-4.6,6.1z
		 M-2.1,4.1c0.3-0.2,0.4-0.6,0.2-0.8C-2.1,3-2.4,3-2.7,3.2C-2.9,3.4-3,3.8-2.8,4C-2.7,4.2-2.4,4.2-2.1,4.1L-2.1,4.1z M-2.1,4.1"/>
	<path style="fill:currentColor;" d="M8-1.9c-0.4,0-0.7-0.3-0.7-0.7c0,0,0.7-3-2.4-2.4C4.6-5,4.3-5.3,4.3-5.6C4.3-6,4.6-6.3,5-6.3
		c0,0,4.2-0.8,3.7,3.7c0,0,0,0,0,0.1C8.6-2.2,8.4-1.9,8-1.9L8-1.9z M8-1.9"/>
	<path style="fill:currentColor;" d="M7.5-9.8c2.6,0.6,6.2,3.1,4.6,8.5h0c-0.1,0.8-0.5,0.8-0.9,0.8c-0.5,0-1-0.3-1-0.9
		c0-0.5,0.2-0.9,0.2-0.9c0.1-0.2,0.5-1.4-0.3-3.3C8.6-8.1,5.6-8.2,5.2-8C4.8-7.9,4.3-7.8,4.3-7.8c-0.5,0-1-0.4-1-1
		c0-0.5,0.3-0.8,0.7-1c0,0,0,0,0,0c0,0,0.1,0,0.1,0C4.6-9.9,6.1-10.2,7.5-9.8L7.5-9.8z M7.5-9.8"/>
</symbol>
<symbol id="icon-wechat-share" viewBox="-22 -22 44 44">
	<path style="fill:currentColor;" d="M2.9,0L2.9,0L2.9,0c0.8,0,1.3,0.5,1.3,1C4.2,1.5,3.7,2,2.9,2c-0.5,0-1-0.5-1-0.9
		C1.9,0.4,2.4,0,2.9,0L2.9,0z M-0.4-4.9L-0.4-4.9L-0.4-4.9c-0.8,0-1.5-0.5-1.5-1.3c0-0.8,0.7-1.3,1.5-1.3c0.8,0,1.3,0.5,1.3,1.3
		C0.9-5.4,0.4-4.9-0.4-4.9L-0.4-4.9z M0-22L0-22L0-22c12.2,0,22,9.8,22,22c0,12.2-9.8,22-22,22c-12.1,0-22-9.8-22-22
		C-22-12.1-12.2-22,0-22L0-22z M-4.2,5.6L-4.2,5.6L-4.2,5.6c0.3,0,0.6,0,0.9,0c-0.2-0.7-0.3-1.4-0.3-2.2c0-4.4,3.8-8.1,8.6-8.1
		c0.3,0,0.6,0,1,0.1c-0.9-4.2-5.3-7.1-10.2-7.1c-5.6,0-10.2,3.7-10.2,8.6c0,2.8,1.5,5,4.1,6.8l-1,3.1L-7.7,5
		C-6.5,5.4-5.5,5.6-4.2,5.6L-4.2,5.6z M10.8,9.1L10.8,9.1L10.8,9.1c2-1.5,3.5-3.5,3.5-5.8c0-4.1-4.1-7.4-8.6-7.4
		c-4.8,0-8.6,3.3-8.6,7.4c0,4.1,3.8,7.4,8.6,7.4c1,0,2-0.3,3.1-0.5l2.7,1.5L10.8,9.1L10.8,9.1z M-7.5-7.4L-7.5-7.4L-7.5-7.4
		c0.7,0,1.3,0.5,1.3,1.3c0,0.8-0.6,1.3-1.3,1.3C-8.2-4.9-9-5.4-9-6.1C-9-6.9-8.2-7.4-7.5-7.4L-7.5-7.4z M8.5,0L8.5,0L8.5,0
		c0.7,0,1.3,0.5,1.3,1C9.8,1.5,9.2,2,8.5,2C8,2,7.5,1.5,7.5,1C7.5,0.4,8,0,8.5,0L8.5,0z M8.5,0"/>
</symbol>
<symbol id="icon-wechat-sign" viewBox="-12.5 -10 25 20">
	<path style="fill:currentColor;" d="M4.4-3.9c-4.2,0-7.5,3.1-7.5,6.9c0,0.6,0.1,1.2,0.3,1.8c-0.3,0-0.5,0-0.8,0c-1.1,0-2-0.2-3.1-0.4
		l-3.1,1.5L-9,3.3c-2.2-1.5-3.5-3.5-3.5-5.9c0-4.1,4-7.4,8.8-7.4c4.4,0,8.2,2.6,8.9,6.1C5-3.9,4.7-3.9,4.4-3.9L4.4-3.9z M-0.3-6.3
		c-0.7,0-1.3,0.4-1.3,1.1c0,0.7,0.7,1.1,1.3,1.1c0.7,0,1.1-0.4,1.1-1.1S0.3-6.3-0.3-6.3L-0.3-6.3z M-6.5-4.1c0.7,0,1.1-0.4,1.1-1.1
		c0-0.7-0.4-1.1-1.1-1.1c-0.7,0-1.3,0.4-1.3,1.1S-7.2-4.1-6.5-4.1L-6.5-4.1z M-6.5-4.1"/>
	<path style="fill:currentColor;" d="M12.5,2.8c0,2-1.3,3.7-3.1,5l0.7,2.2L7.6,8.7C6.8,8.9,5.9,9.1,5,9.1c-4.2,0-7.5-2.8-7.5-6.3
		c0-3.5,3.3-6.3,7.5-6.3C9-3.5,12.5-0.6,12.5,2.8L12.5,2.8z M2.5,1.7c0.7,0,1.1-0.4,1.1-0.9C3.7,0.4,3.2,0,2.5,0
		C2.1,0,1.7,0.4,1.7,0.9C1.7,1.3,2.1,1.7,2.5,1.7L2.5,1.7z M7.4,1.7c0.7,0,1.1-0.4,1.1-0.9C8.5,0.4,8.1,0,7.4,0C7,0,6.5,0.4,6.5,0.9
		C6.5,1.3,7,1.7,7.4,1.7L7.4,1.7z M7.4,1.7"/>
</symbol>
<symbol id="icon-earth" viewBox="-3.3 -3.3 6.6 6.6">
	<path fill="#FFFFFF" d="M2.333,2.334c-1.289,1.289-3.378,1.289-4.667,0c-1.289-1.289-1.289-3.378,0-4.667
	c1.289-1.289,3.378-1.289,4.667,0C3.622-1.045,3.622,1.045,2.333,2.334L2.333,2.334z M1.753-2.295
	C1.744-2.292,1.737-2.289,1.733-2.288c-0.29,0.115-0.438,0.214-0.58,0.417c-0.061,0.086-0.082,0.187-0.085,0.37
	C1.067-1.482,1.05-1.05,0.896-0.896C0.741-0.741,0.324-0.77,0.277-0.762c-0.11,0.019-0.165,0.033-0.198,0.049
	c-0.04,0.02-0.184,0.174-0.202,0.285c-0.018,0.112,0.07,0.219,0.197,0.309c0.104,0.074,0.242,0.128,0.454,0.185
	c0.038,0.01,0.3,0.081,0.346,0.096C1.021,0.213,1.112,0.273,1.15,0.386c0.077,0.23,0.009,0.377-0.21,0.653
	C0.911,1.075,0.731,1.345,0.733,1.447c0.004,0.154,0.262,0.418,0.583,0.5C1.501,1.995,1.613,2.1,1.629,2.256
	C1.632,2.286,1.62,2.34,1.603,2.402c0.155-0.103,0.302-0.224,0.439-0.36c1.127-1.128,1.127-2.956,0-4.084
	C1.95-2.134,1.853-2.219,1.753-2.295L1.753-2.295z M-2.042-2.042C-2.92-1.163-3.115,0.141-2.625,1.207
	c0.01-0.013,0.019-0.026,0.027-0.039c0.07-0.118,0.054-0.272-0.097-0.487c-0.229-0.28-0.105-0.54,0.258-0.921
	c0.022-0.023,0.179-0.185,0.233-0.241c0.434-0.341,0.721-0.799,0.757-1.173c0.029-0.304-0.107-0.496-0.428-0.544
	C-1.932-2.148-1.988-2.096-2.042-2.042L-2.042-2.042z M-2.313,1.338c-0.041,0.067-0.09,0.125-0.147,0.175
	c0.116,0.188,0.255,0.366,0.418,0.529c0.894,0.894,2.229,1.079,3.306,0.555c0.074-0.134,0.15-0.276,0.037-0.302
	c-0.233-0.054-0.891-0.522-0.899-0.84C0.399,1.259,0.652,0.871,0.681,0.834c0.15-0.19,0.183-0.26,0.155-0.343
	c0.002,0.007-0.064-0.016-0.395-0.106C0.194,0.318,0.037,0.236-0.117,0.15c-0.29-0.16-0.376-0.51-0.316-0.694
	c0.06-0.185,0.288-0.426,0.368-0.466c0.069-0.033,0.148-0.053,0.288-0.077c0.051-0.009,0.442-0.059,0.442-0.059
	c0.044-0.025,0.074-0.341,0.075-0.361C0.743-1.75,0.775-1.906,0.883-2.06C1.033-2.273,1.19-2.4,1.424-2.513
	C0.503-3.035-0.645-3.011-1.545-2.44c0.31,0.145,0.465,0.439,0.427,0.819C-1.164-1.15-1.499-0.614-1.978-0.24
	c-0.016,0.017-0.203,0.158-0.303,0.291c-0.139,0.183-0.196,0.375-0.149,0.431C-2.202,0.807-2.171,1.1-2.313,1.338L-2.313,1.338z
	 M-2.313,1.338"/>
</symbol>
<symbol id="icon-guard2" viewBox="-2.85 -3.3 5.7 6.6">
	<path fill-rule="evenodd" clip-rule="evenodd" fill="currentColor" d="M0,2.986C0,2.986,0,2.986,0,2.986L0,2.986L0,2.986z
	 M-2.848-1.286v-0.122h0.003c-0.008-0.09,0.033-0.171,0.133-0.228l2.578-1.634c0.021-0.012,0.044-0.016,0.066-0.022
	c0.004-0.001,0.008-0.003,0.011-0.004C-0.038-3.3-0.019-3.3,0-3.3c0.019-0.001,0.038,0,0.057,0.004
	C0.06-3.295,0.064-3.293,0.068-3.292C0.09-3.287,0.113-3.282,0.134-3.27l2.578,1.634c0.099,0.057,0.141,0.138,0.133,0.228h0.003
	v0.122c0.008,0.149-0.006,0.336-0.006,0.467c0,1.636-1.184,3.59-2.837,4.118C0.003,3.299,0.001,3.299,0,3.298l0-0.312
	c0.001,0.001,0.003,0.001,0.004,0.002c1.365-0.501,2.494-2.297,2.494-3.806c0-0.173-0.009-0.372-0.044-0.542
	c0.014,0.008,0.029,0.017,0.043,0.026L2.434-1.373L0-2.916l-2.434,1.543l-0.063,0.039c0.015-0.009,0.029-0.018,0.043-0.026
	C-2.489-1.19-2.498-0.991-2.498-0.818c0,1.509,1.128,3.305,2.493,3.806c0.001,0,0.003-0.001,0.004-0.002l0,0.312
	c-0.001,0-0.003,0.001-0.004,0.002c-1.654-0.528-2.837-2.482-2.837-4.118C-2.842-0.949-2.855-1.137-2.848-1.286z M0,2.986
	C0,2.986,0,2.986,0,2.986L0,2.986L0,2.986z M-0.15,0.75V-0.3H-1.2c-0.083,0-0.15-0.067-0.15-0.15c0-0.083,0.067-0.15,0.15-0.15
	h1.05v-0.75C-0.15-1.433-0.083-1.5,0-1.5c0.083,0,0.15,0.067,0.15,0.15v0.75H1.2c0.083,0,0.15,0.067,0.15,0.15
	c0,0.083-0.067,0.15-0.15,0.15H0.15v1.05C0.15,0.833,0.083,0.9,0,0.9C-0.083,0.9-0.15,0.833-0.15,0.75z"/>
</symbol>
<symbol id="icon-foldup" viewBox="-5 -6 10 12">
	<path fill="currentColor" d="M1-2.999v6h-2v-6l-3.286,2.745L-5-0.972l4.277-4.309l0.104-0.105L-0.01-6l0,0.001L-0.009-6l5.001,5.028
	L4.278-0.254L1-2.999z M5,6h-9.991V4.005H5V6z"/>
</symbol>
<symbol id="icon-arrow-right" viewBox="-2.519 -4.153 5.039 8.306">
	<polygon fill-rule="evenodd" clip-rule="evenodd" fill="currentColor" points="2.287,0.079 2.413,0.205 -1.537,4.153 -2.519,3.171
	0.668,-0.015 -2.475,-3.158 -1.48,-4.153 2.52,-0.154"/>
</symbol>
<symbol id="icon-lock" viewBox="-3.3 -3.3 6.6 6.6">
    <path fill="currentColor" d="M0,1.911c-0.735,0-1.332-0.596-1.332-1.332S-0.735-0.753,0-0.753s1.332,0.597,1.332,1.332
    S0.735,1.911,0,1.911z M0-0.29c-0.479,0-0.869,0.389-0.869,0.869S-0.479,1.447,0,1.447s0.868-0.389,0.868-0.868
    S0.479-0.29,0-0.29z M-0.174,0.29h0.348v0.579h-0.348V0.29z M0,3.3c-1.822,0-3.3-1.477-3.3-3.3S-1.822-3.3,0-3.3S3.3-1.823,3.3,0
    S1.822,3.3,0,3.3z M-0.009-2.931c-1.567,0-2.903,1.364-2.903,2.931S-1.567,2.921,0,2.921l0.009,0.009
    c1.567,0,2.931-1.383,2.931-2.949C2.94-1.585,1.557-2.931-0.009-2.931z M0-1.563c-0.376,0-0.685,0.276-0.741,0.637
    c-0.13,0.064-0.25,0.144-0.359,0.238v-0.123c0-0.607,0.493-1.1,1.1-1.1s1.1,0.493,1.1,1.1v0.123
    C0.992-0.782,0.871-0.862,0.741-0.926C0.685-1.287,0.376-1.563,0-1.563z"/>
</symbol>
<symbol id="icon-openlock" viewBox="-4.831 -5.958 9.662 11.917">
    <path fill="currentColor" d="M-3.169,5.958L-3.169,5.958h6.335h0.702c0.526,0,0.961-0.418,0.963-0.92v-5.322
    c-0.006-0.238-0.117-0.46-0.294-0.627C4.359-1.08,4.116-1.127,3.865-1.127h-6.442V-3.06C-2.569-4.299-1.161-5.314,0-5.314
    c1.385,0,2.24,1.061,2.301,2.239C2.305-3.007,2.307-2.91,2.308-2.906v0.004c0,0.211,0.046,0.487,0.269,0.487
    c0.221,0,0.32-0.435,0.322-0.644c0-0.009,0,0.002,0,0c0-0.81-0.108-1.44-0.693-2.011C1.618-5.643,0.83-5.958-0.012-5.958
    c-0.84,0-1.63,0.312-2.225,0.879c-0.594,0.565-0.977,1.219-0.984,2.02v1.288v0.644l0,0l-0.674-0.048
    c-0.251,0.006-0.487,0.11-0.663,0.28c-0.175,0.17-0.273,0.398-0.273,0.637v0.705v3.881v0.711c0,0.504,0.43,0.92,0.957,0.92H-3.169
    L-3.169,5.958z M4.187,0.161L4.187,0.161V4.67c0,0.348-0.29,0.644-0.644,0.644h-7.086c-0.354,0-0.644-0.297-0.644-0.644V0.161
    c0-0.347,0.29-0.644,0.644-0.644h7.086C3.897-0.483,4.187-0.186,4.187,0.161L4.187,0.161z M4.187,0.161"/>
</symbol>
<symbol id="icon-phone" viewBox="-3.875 -6.458 7.75 12.917">
    <path fill="currentColor" d="M3.875-5.81V5.811c0,0.358-0.294,0.648-0.656,0.648h-6.438c-0.362,0-0.656-0.29-0.656-0.648V-5.81
    c0-0.358,0.294-0.648,0.656-0.648h6.438C3.581-6.458,3.875-6.168,3.875-5.81z M3.391,3.59h-6.781v2.221
    c0,0.093,0.077,0.169,0.171,0.169h6.438c0.094,0,0.172-0.076,0.172-0.169V3.59z M3.391,3.111L3.358-4.392h-6.717l-0.032,7.503
    H3.391z M3.391-5.81c0-0.094-0.077-0.17-0.172-0.17h-6.438c-0.094,0-0.171,0.076-0.171,0.17l0.032,0.902h6.717L3.391-5.81z
     M0.775,5.167h-1.55V4.65h1.55V5.167z"/>
</symbol>
<symbol id="icon-set" viewBox="-3.3 -3.3 6.6 6.6">
    <path fill="currentColor" d="M3.082,0.778L2.571,0.481C2.599,0.324,2.618,0.165,2.618,0c0-0.165-0.019-0.324-0.047-0.48l0.511-0.297
    c0.209-0.121,0.28-0.391,0.16-0.601L2.805-2.141c-0.12-0.21-0.387-0.283-0.596-0.161L1.693-2.001
    c-0.241-0.207-0.515-0.376-0.82-0.485V-2.86c0-0.243-0.195-0.44-0.436-0.44h-0.873c-0.241,0-0.437,0.197-0.437,0.44v0.373
    c-0.305,0.109-0.579,0.278-0.82,0.485l-0.516-0.301c-0.209-0.122-0.476-0.049-0.596,0.161l-0.436,0.762
    c-0.12,0.21-0.049,0.479,0.16,0.601l0.511,0.297C-2.6-0.324-2.618-0.165-2.618,0c0,0.165,0.019,0.324,0.048,0.48l-0.511,0.298
    c-0.209,0.122-0.28,0.391-0.16,0.601l0.436,0.762c0.121,0.211,0.387,0.283,0.596,0.161l0.516-0.301
    c0.241,0.207,0.515,0.376,0.82,0.485V2.86c0,0.243,0.195,0.44,0.437,0.44h0.873c0.241,0,0.436-0.197,0.436-0.44V2.487
    c0.305-0.109,0.579-0.278,0.82-0.485l0.516,0.3c0.209,0.122,0.476,0.049,0.596-0.161l0.436-0.762C3.362,1.169,3.29,0.9,3.082,0.778
    L3.082,0.778z M2.754,1.349L2.536,1.731c-0.06,0.105-0.194,0.141-0.298,0.081L1.632,1.458c-0.308,0.35-0.724,0.601-1.196,0.698
    V2.64c0,0.122-0.098,0.22-0.218,0.22h-0.436c-0.121,0-0.218-0.099-0.218-0.22V2.156c-0.472-0.097-0.888-0.348-1.196-0.698
    l-0.606,0.353C-2.343,1.872-2.476,1.836-2.536,1.73l-0.218-0.381c-0.06-0.105-0.024-0.24,0.08-0.301l0.609-0.354
    C-2.139,0.476-2.182,0.243-2.182,0s0.043-0.476,0.116-0.695l-0.609-0.354c-0.104-0.061-0.14-0.195-0.08-0.301l0.218-0.381
    c0.06-0.105,0.194-0.141,0.298-0.081l0.606,0.353c0.308-0.35,0.724-0.601,1.196-0.698V-2.64c0-0.121,0.098-0.22,0.218-0.22h0.436
    c0.121,0,0.218,0.099,0.218,0.22v0.484c0.472,0.097,0.888,0.348,1.196,0.698l0.606-0.353C2.343-1.872,2.476-1.836,2.536-1.73
    l0.218,0.381c0.06,0.105,0.024,0.24-0.08,0.301L2.066-0.695C2.139-0.476,2.182-0.243,2.182,0c0,0.243-0.043,0.476-0.116,0.695
    l0.609,0.354C2.779,1.11,2.815,1.244,2.754,1.349L2.754,1.349z M0-1.1c-0.603,0-1.091,0.492-1.091,1.1S-0.603,1.1,0,1.1
    c0.602,0,1.091-0.493,1.091-1.1S0.602-1.1,0-1.1L0-1.1z M0,0.66c-0.362,0-0.655-0.295-0.655-0.66S-0.362-0.66,0-0.66
    c0.361,0,0.655,0.295,0.655,0.66S0.361,0.66,0,0.66L0,0.66z M0,0.66"/>
</symbol>
<symbol id="icon-female" viewBox="-9.429 -12 18.858 24">
	<path fill="#e31919" d="M-9.429-2.571C-9.429-7.77-5.199-12,0-12c5.199,0,9.429,4.23,9.429,9.429c0,4.912-3.778,8.954-8.58,9.385
	c0,0.016,0.008,0.028,0.008,0.043v1.715h3.429c0.473,0,0.857,0.383,0.857,0.857c0,0.474-0.384,0.857-0.857,0.857H0.857v0.857
	C0.857,11.617,0.473,12,0,12c-0.473,0-0.857-0.383-0.857-0.857v-0.857h-3.429c-0.474,0-0.857-0.383-0.857-0.857
	s0.383-0.857,0.857-0.857h3.429V6.857c0-0.015,0.008-0.027,0.008-0.043C-5.651,6.383-9.429,2.341-9.429-2.571 M0,5.143
	c4.253,0,7.714-3.46,7.714-7.714c0-4.253-3.461-7.715-7.714-7.715c-4.254,0-7.714,3.462-7.714,7.715
	C-7.714,1.683-4.254,5.143,0,5.143"/>
</symbol>
<symbol id="icon-male" viewBox="-11 -11 22 22">
	<path fill="#375bed" d="M-10.962-10.345c0.006-0.035,0.009-0.071,0.021-0.106l0.001-0.001c0.021-0.058,0.056-0.105,0.089-0.156
	c0.001-0.001,0.002-0.002,0.003-0.004c0.022-0.034,0.032-0.071,0.059-0.102c0.006-0.007,0.014-0.01,0.02-0.016
	c0.042-0.046,0.095-0.077,0.147-0.112c0-0.001,0.001-0.001,0.002-0.002c0.04-0.027,0.075-0.06,0.118-0.079h0.001
	C-10.394-10.971-10.277-11-10.154-11h5.923c0.468,0,0.846,0.379,0.846,0.846c0,0.467-0.378,0.846-0.846,0.846h-3.684l4.038,3.561
	c1.555-1.168,3.479-1.869,5.569-1.869C6.824-7.616,11-3.44,11,1.692S6.824,11,1.692,11s-9.307-4.176-9.307-9.308
	c0-2.43,0.943-4.639,2.475-6.298L-9.308-8.28v3.203c0,0.467-0.378,0.846-0.846,0.846S-11-4.61-11-5.077v-5.077
	C-11-10.222-10.977-10.281-10.962-10.345 M-5.923,1.692c0,4.199,3.416,7.615,7.615,7.615s7.616-3.416,7.616-7.615
	S5.891-5.923,1.692-5.923S-5.923-2.507-5.923,1.692"/>
</symbol>
<symbol id="icon-qzone-sign" viewBox="-257.606 -250.903 515.212 501.806">
	<path fill="currentColor" d="M251.007-63.3h0.016c4.422,1.586,12.289,7.918,0,19.07c-16.598,17.617-116.25,112.977-116.25,112.977
	l3.125,19.894C42.8,90.825-36.348,80.032-36.348,80.032S69.874,0.313,124.019-37.077c-120.793-26.094-265.887,0-265.887,0
	C15.718-34.245,39.32-20.839,39.32-20.839s-138.844,110.75-153.426,121.32c84.816,8.16,200.375-0.516,252.586-8.16l0,0l0,0
	c10.621-1.563,18.625-3.059,23.191-4.383c2.094-0.359,4.36-0.754,6.825-1.168c-4.559,5.711-23.805,15.445-28.227,16.996
	l21.219,135.199c0,0,0,17.618-23.114,6.61c-23.828-12.461-135.16-80.699-135.16-80.699l-146.433,84.316
	c0,0-28.157,10.328-22.383-19.762c7.219-31.547,36.105-158.472,36.105-158.472L-252.251-39.093c0,0-16.605-19.813,8.665-25.68
	c25.285-3.668,153.082-18.344,153.082-18.344s51.496-127.968,80.273-162.882c2.875-3.473,11.937-9.036,17.922,0
	C19.07-228.808,85.66-83.117,85.66-83.117s126.132,5.653,165.347,19.813V-63.3z M251.007-63.304"/>
</symbol>
<symbol id="icon-edit" viewBox="-348.987 -358.318 697.974 716.636">
	<path fill="currentColor" d="M252.247,358.318c26.516,0,50.297-11.801,67.457-33.789c15.051-19.282,23.063-43.848,23.063-69.727V-11.292
	c0-13.511-11.047-24.465-24.559-24.465c-13.511,0-24.558,10.954-24.558,24.465v266.094c0,26.547-15.371,54.398-41.403,54.398
	h-496.316c-26.824,0-55.801-27.574-55.801-54.398v-515.883c0-26.035,29.258-42.883,55.801-42.883H25.29
	c13.512,0,24.465-11.047,24.465-24.558c0-13.512-10.953-24.559-24.465-24.559h-269.355c-25.879,0-51.149,8.75-70.43,23.801
	c-21.984,17.16-34.492,41.68-34.492,68.199v515.883c0,25.691,12.008,51.73,32.246,71.973
	c20.238,20.238,46.981,31.543,72.672,31.543H252.247L252.247,358.318z M252.247,358.318"/>
	<path fill="currentColor" d="M-9.257,30.915c7.926,0,15.86-3.027,21.911-9.078l327.257-327.258c12.102-12.101,12.102-31.722,0-43.824
	c-12.101-12.098-31.718-12.098-43.82,0L-31.171-21.983c-12.101,12.101-12.101,31.719,0,43.82
	C-25.12,27.888-17.19,30.915-9.257,30.915L-9.257,30.915z M-9.257,30.915"/>
</symbol>
<symbol id="icon-delete" viewBox="-9.898 -10.498 19.796 20.996">
	<path fill="currentColor" d="M9.298-6.899L9.298-6.899c0.332,0,0.6-0.268,0.6-0.6c0-0.331-0.268-0.6-0.6-0.6H-9.299
	c-0.332,0-0.6,0.269-0.6,0.6c0,0.332,0.268,0.6,0.6,0.6H9.298L9.298-6.899z M3.299-9.298L3.299-9.298c0.332,0,0.6-0.268,0.6-0.6
	c0-0.331-0.268-0.6-0.6-0.6H-3.3c-0.332,0-0.6,0.269-0.6,0.6c0,0.332,0.268,0.6,0.6,0.6H3.299L3.299-9.298z M-2.7,6.299L-2.7,6.299
	c0,0.332,0.268,0.6,0.6,0.6c0.332,0,0.6-0.268,0.6-0.6V-3.899c0-0.331-0.268-0.6-0.6-0.6c-0.332,0-0.6,0.269-0.6,0.6V6.299
	L-2.7,6.299z M1.499,6.299L1.499,6.299c0,0.332,0.268,0.6,0.6,0.6c0.332,0,0.6-0.268,0.6-0.6V-3.899c0-0.331-0.268-0.6-0.6-0.6
	c-0.332,0-0.6,0.269-0.6,0.6V6.299L1.499,6.299z M-6.899-5.099L-6.899-5.099c-0.332,0-0.6,0.269-0.6,0.6v2.4v0.6v1.101v9.097
	c0,0.994,0.806,1.8,1.8,1.8H5.699c0.994,0,1.8-0.806,1.8-1.8V-1.5v-0.6v-2.4c0-0.331-0.268-0.6-0.6-0.6c-0.332,0-0.6,0.269-0.6,0.6
	v0.71V-1.5v9.598c0,0.662-0.538,1.2-1.2,1.2H-5.099c-0.662,0-1.2-0.538-1.2-1.2V-1.5v-2.289v-0.71
	C-6.299-4.83-6.567-5.099-6.899-5.099L-6.899-5.099z M-6.899-5.099"/>
</symbol>
<symbol id="icon-fa-bold" viewBox="0 0 1792 1792">
	<path fill="currentColor" d="M747 1521q74 32 140 32 376 0 376-335 0-114-41-180-27-44-61.5-74t-67.5-46.5-80.5-25-84-10.5-94.5-2q-73 0-101 10 0 53-.5 159t-.5 158q0 8-1 67.5t-.5 96.5 4.5 83.5 12 66.5zm-14-746q42 7 109 7 82 0 143-13t110-44.5 74.5-89.5 25.5-142q0-70-29-122.5t-79-82-108-43.5-124-14q-50 0-130 13 0 50 4 151t4 152q0 27-.5 80t-.5 79q0 46 1 69zm-541 889l2-94q15-4 85-16t106-27q7-12 12.5-27t8.5-33.5 5.5-32.5 3-37.5.5-34v-65.5q0-982-22-1025-4-8-22-14.5t-44.5-11-49.5-7-48.5-4.5-30.5-3l-4-83q98-2 340-11.5t373-9.5q23 0 68.5.5t67.5.5q70 0 136.5 13t128.5 42 108 71 74 104.5 28 137.5q0 52-16.5 95.5t-39 72-64.5 57.5-73 45-84 40q154 35 256.5 134t102.5 248q0 100-35 179.5t-93.5 130.5-138 85.5-163.5 48.5-176 14q-44 0-132-3t-132-3q-106 0-307 11t-231 12z"/>
</symbol>
    <symbol id="icon-fa-italic" viewBox="0 0 1792 1792">
        <path fill="currentColor" d="M384 1662l17-85q6-2 81.5-21.5t111.5-37.5q28-35 41-101 1-7 62-289t114-543.5 52-296.5v-25q-24-13-54.5-18.5t-69.5-8-58-5.5l19-103q33 2 120 6.5t149.5 7 120.5 2.5q48 0 98.5-2.5t121-7 98.5-6.5q-5 39-19 89-30 10-101.5 28.5t-108.5 33.5q-8 19-14 42.5t-9 40-7.5 45.5-6.5 42q-27 148-87.5 419.5t-77.5 355.5q-2 9-13 58t-20 90-16 83.5-6 57.5l1 18q17 4 185 31-3 44-16 99-11 0-32.5 1.5t-32.5 1.5q-29 0-87-10t-86-10q-138-2-206-2-51 0-143 9t-121 11z"/>
    </symbol>
    <symbol id="icon-fa-underline" viewBox="0 0 1792 1792">
        <path fill="currentColor" d="M176 223q-37-2-45-4l-3-88q13-1 40-1 60 0 112 4 132 7 166 7 86 0 168-3 116-4 146-5 56 0 86-2l-1 14 2 64v9q-60 9-124 9-60 0-79 25-13 14-13 132 0 13 .5 32.5t.5 25.5l1 229 14 280q6 124 51 202 35 59 96 92 88 47 177 47 104 0 191-28 56-18 99-51 48-36 65-64 36-56 53-114 21-73 21-229 0-79-3.5-128t-11-122.5-13.5-159.5l-4-59q-5-67-24-88-34-35-77-34l-100 2-14-3 2-86h84l205 10q76 3 196-10l18 2q6 38 6 51 0 7-4 31-45 12-84 13-73 11-79 17-15 15-15 41 0 7 1.5 27t1.5 31q8 19 22 396 6 195-15 304-15 76-41 122-38 65-112 123-75 57-182 89-109 33-255 33-167 0-284-46-119-47-179-122-61-76-83-195-16-80-16-237v-333q0-188-17-213-25-36-147-39zm1488 1409v-64q0-14-9-23t-23-9h-1472q-14 0-23 9t-9 23v64q0 14 9 23t23 9h1472q14 0 23-9t9-23z"/>
    </symbol>
    <symbol id="icon-fa-eraser" viewBox="0 0 1792 1792">
        <path fill="currentColor" d="M832 1408l336-384h-768l-336 384h768zm1013-1077q15 34 9.5 71.5t-30.5 65.5l-896 1024q-38 44-96 44h-768q-38 0-69.5-20.5t-47.5-54.5q-15-34-9.5-71.5t30.5-65.5l896-1024q38-44 96-44h768q38 0 69.5 20.5t47.5 54.5z"/>
    </symbol>
    <symbol id="icon-fa-image" viewBox="0 0 1792 1792">
        <path fill="currentColor" d="M1596 380q28 28 48 76t20 88v1152q0 40-28 68t-68 28h-1344q-40 0-68-28t-28-68v-1600q0-40 28-68t68-28h896q40 0 88 20t76 48zm-444-244v376h376q-10-29-22-41l-313-313q-12-12-41-22zm384 1528v-1024h-416q-40 0-68-28t-28-68v-416h-768v1536h1280zm-128-448v320h-1024v-192l192-192 128 128 384-384zm-832-192q-80 0-136-56t-56-136 56-136 136-56 136 56 56 136-56 136-136 56z"/>
    </symbol>
    <symbol id="icon-fa-picture" viewBox="0 0 1792 1792">
        <path fill="currentColor" d="M576 576q0 80-56 136t-136 56-136-56-56-136 56-136 136-56 136 56 56 136zm1024 384v448h-1408v-192l320-320 160 160 512-512zm96-704h-1600q-13 0-22.5 9.5t-9.5 22.5v1216q0 13 9.5 22.5t22.5 9.5h1600q13 0 22.5-9.5t9.5-22.5v-1216q0-13-9.5-22.5t-22.5-9.5zm160 32v1216q0 66-47 113t-113 47h-1600q-66 0-113-47t-47-113v-1216q0-66 47-113t113-47h1600q66 0 113 47t47 113z"/>
    </symbol>
	<symbol id="icon-fa-undo" viewBox="0 0 1792 1792">
		<path fill="currentColor" d="M1792 1120q0 166-127 451-3 7-10.5 24t-13.5 30-13 22q-12 17-28 17-15 0-23.5-10t-8.5-25q0-9 2.5-26.5t2.5-23.5q5-68 5-123 0-101-17.5-181t-48.5-138.5-80-101-105.5-69.5-133-42.5-154-21.5-175.5-6h-224v256q0 26-19 45t-45 19-45-19l-512-512q-19-19-19-45t19-45l512-512q19-19 45-19t45 19 19 45v256h224q713 0 875 403 53 134 53 333z"/>
	</symbol>
	<symbol id="icon-fa-redo" viewBox="0 0 1792 1792">
		<path fill="currentColor" d="M1792 640q0 26-19 45l-512 512q-19 19-45 19t-45-19-19-45v-256h-224q-98 0-175.5 6t-154 21.5-133 42.5-105.5 69.5-80 101-48.5 138.5-17.5 181q0 55 5 123 0 6 2.5 23.5t2.5 26.5q0 15-8.5 25t-23.5 10q-16 0-28-17-7-9-13-22t-13.5-30-10.5-24q-127-285-127-451 0-199 53-333 162-403 875-403h224v-256q0-26 19-45t45-19 45 19l512 512q19 19 19 45z"/>
	</symbol>
    <symbol id="icon-fa-link" viewBox="0 0 1792 1792">
        <path fill="currentColor" d="M1520 1216q0-40-28-68l-208-208q-28-28-68-28-42 0-72 32 3 3 19 18.5t21.5 21.5 15 19 13 25.5 3.5 27.5q0 40-28 68t-68 28q-15 0-27.5-3.5t-25.5-13-19-15-21.5-21.5-18.5-19q-33 31-33 73 0 40 28 68l206 207q27 27 68 27 40 0 68-26l147-146q28-28 28-67zm-703-705q0-40-28-68l-206-207q-28-28-68-28-39 0-68 27l-147 146q-28 28-28 67 0 40 28 68l208 208q27 27 68 27 42 0 72-31-3-3-19-18.5t-21.5-21.5-15-19-13-25.5-3.5-27.5q0-40 28-68t68-28q15 0 27.5 3.5t25.5 13 19 15 21.5 21.5 18.5 19q33-31 33-73zm895 705q0 120-85 203l-147 146q-83 83-203 83-121 0-204-85l-206-207q-83-83-83-203 0-123 88-209l-88-88q-86 88-208 88-120 0-204-84l-208-208q-84-84-84-204t85-203l147-146q83-83 203-83 121 0 204 85l206 207q83 83 83 203 0 123-88 209l88 88q86-88 208-88 120 0 204 84l208 208q84 84 84 204z"/>
    </symbol>
    <symbol id="icon-fa-cut" viewBox="0 0 1792 1792">
        <path fill="currentColor" d="M960 896q26 0 45 19t19 45-19 45-45 19-45-19-19-45 19-45 45-19zm300 64l507 398q28 20 25 56-5 35-35 51l-128 64q-13 7-29 7-17 0-31-8l-690-387-110 66q-8 4-12 5 14 49 10 97-7 77-56 147.5t-132 123.5q-132 84-277 84-136 0-222-78-90-84-79-207 7-76 56-147t131-124q132-84 278-84 83 0 151 31 9-13 22-22l122-73-122-73q-13-9-22-22-68 31-151 31-146 0-278-84-82-53-131-124t-56-147q-5-59 15.5-113t63.5-93q85-79 222-79 145 0 277 84 83 52 132 123t56 148q4 48-10 97 4 1 12 5l110 66 690-387q14-8 31-8 16 0 29 7l128 64q30 16 35 51 3 36-25 56zm-681-260q46-42 21-108t-106-117q-92-59-192-59-74 0-113 36-46 42-21 108t106 117q92 59 192 59 74 0 113-36zm-85 745q81-51 106-117t-21-108q-39-36-113-36-100 0-192 59-81 51-106 117t21 108q39 36 113 36 100 0 192-59zm178-613l96 58v-11q0-36 33-56l14-8-79-47-26 26q-3 3-10 11t-12 12q-2 2-4 3.5t-3 2.5zm224 224l96 32 736-576-128-64-768 431v113l-160 96 9 8q2 2 7 6 4 4 11 12t11 12l26 26zm704 416l128-64-520-408-177 138q-2 3-13 7z"/>
    </symbol>
    <symbol id="icon-fa-align-left" viewBox="0 0 1792 1792">
        <path fill="currentColor" d="M1792 1344v128q0 26-19 45t-45 19h-1664q-26 0-45-19t-19-45v-128q0-26 19-45t45-19h1664q26 0 45 19t19 45zm-384-384v128q0 26-19 45t-45 19h-1280q-26 0-45-19t-19-45v-128q0-26 19-45t45-19h1280q26 0 45 19t19 45zm256-384v128q0 26-19 45t-45 19h-1536q-26 0-45-19t-19-45v-128q0-26 19-45t45-19h1536q26 0 45 19t19 45zm-384-384v128q0 26-19 45t-45 19h-1152q-26 0-45-19t-19-45v-128q0-26 19-45t45-19h1152q26 0 45 19t19 45z"/>
    </symbol>
    <symbol id="icon-fa-align-right" viewBox="0 0 1792 1792">
        <path fill="currentColor" d="M1792 1344v128q0 26-19 45t-45 19h-1664q-26 0-45-19t-19-45v-128q0-26 19-45t45-19h1664q26 0 45 19t19 45zm0-384v128q0 26-19 45t-45 19h-1280q-26 0-45-19t-19-45v-128q0-26 19-45t45-19h1280q26 0 45 19t19 45zm0-384v128q0 26-19 45t-45 19h-1536q-26 0-45-19t-19-45v-128q0-26 19-45t45-19h1536q26 0 45 19t19 45zm0-384v128q0 26-19 45t-45 19h-1152q-26 0-45-19t-19-45v-128q0-26 19-45t45-19h1152q26 0 45 19t19 45z"/>
    </symbol>
    <symbol id="icon-fa-align-center" viewBox="0 0 1792 1792">
        <path fill="currentColor" d="M1792 1344v128q0 26-19 45t-45 19h-1664q-26 0-45-19t-19-45v-128q0-26 19-45t45-19h1664q26 0 45 19t19 45zm-384-384v128q0 26-19 45t-45 19h-896q-26 0-45-19t-19-45v-128q0-26 19-45t45-19h896q26 0 45 19t19 45zm256-384v128q0 26-19 45t-45 19h-1408q-26 0-45-19t-19-45v-128q0-26 19-45t45-19h1408q26 0 45 19t19 45zm-384-384v128q0 26-19 45t-45 19h-640q-26 0-45-19t-19-45v-128q0-26 19-45t45-19h640q26 0 45 19t19 45z"/>
    </symbol>
    <symbol id="icon-fa-align-justify" viewBox="0 0 1792 1792">
        <path fill="currentColor" d="M1792 1344v128q0 26-19 45t-45 19h-1664q-26 0-45-19t-19-45v-128q0-26 19-45t45-19h1664q26 0 45 19t19 45zm0-384v128q0 26-19 45t-45 19h-1664q-26 0-45-19t-19-45v-128q0-26 19-45t45-19h1664q26 0 45 19t19 45zm0-384v128q0 26-19 45t-45 19h-1664q-26 0-45-19t-19-45v-128q0-26 19-45t45-19h1664q26 0 45 19t19 45zm0-384v128q0 26-19 45t-45 19h-1664q-26 0-45-19t-19-45v-128q0-26 19-45t45-19h1664q26 0 45 19t19 45z"/>
    </symbol>
    <symbol id="icon-fa-font" viewBox="0 0 1792 1792">
        <path fill="currentColor" d="M789 559l-170 450q33 0 136.5 2t160.5 2q19 0 57-2-87-253-184-452zm-725 1105l2-79q23-7 56-12.5t57-10.5 49.5-14.5 44.5-29 31-50.5l237-616 280-724h128q8 14 11 21l205 480q33 78 106 257.5t114 274.5q15 34 58 144.5t72 168.5q20 45 35 57 19 15 88 29.5t84 20.5q6 38 6 57 0 4-.5 13t-.5 13q-63 0-190-8t-191-8q-76 0-215 7t-178 8q0-43 4-78l131-28q1 0 12.5-2.5t15.5-3.5 14.5-4.5 15-6.5 11-8 9-11 2.5-14q0-16-31-96.5t-72-177.5-42-100l-450-2q-26 58-76.5 195.5t-50.5 162.5q0 22 14 37.5t43.5 24.5 48.5 13.5 57 8.5 41 4q1 19 1 58 0 9-2 27-58 0-174.5-10t-174.5-10q-8 0-26.5 4t-21.5 4q-80 14-188 14z"/>
    </symbol>
    <symbol id="icon-fa-unlink" viewBox="0 0 1792 1792">
        <path fill="currentColor" d="M503 1271l-256 256q-10 9-23 9-12 0-23-9-9-10-9-23t9-23l256-256q10-9 23-9t23 9q9 10 9 23t-9 23zm169 41v320q0 14-9 23t-23 9-23-9-9-23v-320q0-14 9-23t23-9 23 9 9 23zm-224-224q0 14-9 23t-23 9h-320q-14 0-23-9t-9-23 9-23 23-9h320q14 0 23 9t9 23zm1264 128q0 120-85 203l-147 146q-83 83-203 83-121 0-204-85l-334-335q-21-21-42-56l239-18 273 274q27 27 68 27.5t68-26.5l147-146q28-28 28-67 0-40-28-68l-274-275 18-239q35 21 56 42l336 336q84 86 84 204zm-617-724l-239 18-273-274q-28-28-68-28-39 0-68 27l-147 146q-28 28-28 67 0 40 28 68l274 274-18 240q-35-21-56-42l-336-336q-84-86-84-204 0-120 85-203l147-146q83-83 203-83 121 0 204 85l334 335q21 21 42 56zm633 84q0 14-9 23t-23 9h-320q-14 0-23-9t-9-23 9-23 23-9h320q14 0 23 9t9 23zm-544-544v320q0 14-9 23t-23 9-23-9-9-23v-320q0-14 9-23t23-9 23 9 9 23zm407 151l-256 256q-11 9-23 9t-23-9q-9-10-9-23t9-23l256-256q10-9 23-9t23 9q9 10 9 23t-9 23z"/>
    </symbol>
    <symbol id="icon-fa-print" viewBox="0 0 1792 1792">
        <path fill="currentColor" d="M448 1536h896v-256h-896v256zm0-640h896v-384h-160q-40 0-68-28t-28-68v-160h-640v640zm1152 64q0-26-19-45t-45-19-45 19-19 45 19 45 45 19 45-19 19-45zm128 0v416q0 13-9.5 22.5t-22.5 9.5h-224v160q0 40-28 68t-68 28h-960q-40 0-68-28t-28-68v-160h-224q-13 0-22.5-9.5t-9.5-22.5v-416q0-79 56.5-135.5t135.5-56.5h64v-544q0-40 28-68t68-28h672q40 0 88 20t76 48l152 152q28 28 48 76t20 88v256h64q79 0 135.5 56.5t56.5 135.5z"/>
    </symbol>
    <symbol id="icon-fa-list-ul" viewBox="0 0 1792 1792">
        <path fill="currentColor" d="M384 1408q0 80-56 136t-136 56-136-56-56-136 56-136 136-56 136 56 56 136zm0-512q0 80-56 136t-136 56-136-56-56-136 56-136 136-56 136 56 56 136zm1408 416v192q0 13-9.5 22.5t-22.5 9.5h-1216q-13 0-22.5-9.5t-9.5-22.5v-192q0-13 9.5-22.5t22.5-9.5h1216q13 0 22.5 9.5t9.5 22.5zm-1408-928q0 80-56 136t-136 56-136-56-56-136 56-136 136-56 136 56 56 136zm1408 416v192q0 13-9.5 22.5t-22.5 9.5h-1216q-13 0-22.5-9.5t-9.5-22.5v-192q0-13 9.5-22.5t22.5-9.5h1216q13 0 22.5 9.5t9.5 22.5zm0-512v192q0 13-9.5 22.5t-22.5 9.5h-1216q-13 0-22.5-9.5t-9.5-22.5v-192q0-13 9.5-22.5t22.5-9.5h1216q13 0 22.5 9.5t9.5 22.5z"/>
    </symbol>
    <symbol id="icon-fa-list-ol" viewBox="0 0 1792 1792">
        <path fill="currentColor" d="M381 1620q0 80-54.5 126t-135.5 46q-106 0-172-66l57-88q49 45 106 45 29 0 50.5-14.5t21.5-42.5q0-64-105-56l-26-56q8-10 32.5-43.5t42.5-54 37-38.5v-1q-16 0-48.5 1t-48.5 1v53h-106v-152h333v88l-95 115q51 12 81 49t30 88zm2-627v159h-362q-6-36-6-54 0-51 23.5-93t56.5-68 66-47.5 56.5-43.5 23.5-45q0-25-14.5-38.5t-39.5-13.5q-46 0-81 58l-85-59q24-51 71.5-79.5t105.5-28.5q73 0 123 41.5t50 112.5q0 50-34 91.5t-75 64.5-75.5 50.5-35.5 52.5h127v-60h105zm1409 319v192q0 13-9.5 22.5t-22.5 9.5h-1216q-13 0-22.5-9.5t-9.5-22.5v-192q0-14 9-23t23-9h1216q13 0 22.5 9.5t9.5 22.5zm-1408-899v99h-335v-99h107q0-41 .5-122t.5-121v-12h-2q-8 17-50 54l-71-76 136-127h106v404h108zm1408 387v192q0 13-9.5 22.5t-22.5 9.5h-1216q-13 0-22.5-9.5t-9.5-22.5v-192q0-14 9-23t23-9h1216q13 0 22.5 9.5t9.5 22.5zm0-512v192q0 13-9.5 22.5t-22.5 9.5h-1216q-13 0-22.5-9.5t-9.5-22.5v-192q0-13 9.5-22.5t22.5-9.5h1216q13 0 22.5 9.5t9.5 22.5z"/>
    </symbol>
    <symbol id="icon-fa-indent" viewBox="0 0 1792 1792">
        <path fill="currentColor" d="M352 832q0 14-9 23l-288 288q-9 9-23 9-13 0-22.5-9.5t-9.5-22.5v-576q0-13 9.5-22.5t22.5-9.5q14 0 23 9l288 288q9 9 9 23zm1440 480v192q0 13-9.5 22.5t-22.5 9.5h-1728q-13 0-22.5-9.5t-9.5-22.5v-192q0-13 9.5-22.5t22.5-9.5h1728q13 0 22.5 9.5t9.5 22.5zm0-384v192q0 13-9.5 22.5t-22.5 9.5h-1088q-13 0-22.5-9.5t-9.5-22.5v-192q0-13 9.5-22.5t22.5-9.5h1088q13 0 22.5 9.5t9.5 22.5zm0-384v192q0 13-9.5 22.5t-22.5 9.5h-1088q-13 0-22.5-9.5t-9.5-22.5v-192q0-13 9.5-22.5t22.5-9.5h1088q13 0 22.5 9.5t9.5 22.5zm0-384v192q0 13-9.5 22.5t-22.5 9.5h-1728q-13 0-22.5-9.5t-9.5-22.5v-192q0-13 9.5-22.5t22.5-9.5h1728q13 0 22.5 9.5t9.5 22.5z"/>
    </symbol>
    <symbol id="icon-fa-outdent" viewBox="0 0 1792 1792">
        <path fill="currentColor" d="M384 544v576q0 13-9.5 22.5t-22.5 9.5q-14 0-23-9l-288-288q-9-9-9-23t9-23l288-288q9-9 23-9 13 0 22.5 9.5t9.5 22.5zm1408 768v192q0 13-9.5 22.5t-22.5 9.5h-1728q-13 0-22.5-9.5t-9.5-22.5v-192q0-13 9.5-22.5t22.5-9.5h1728q13 0 22.5 9.5t9.5 22.5zm0-384v192q0 13-9.5 22.5t-22.5 9.5h-1088q-13 0-22.5-9.5t-9.5-22.5v-192q0-13 9.5-22.5t22.5-9.5h1088q13 0 22.5 9.5t9.5 22.5zm0-384v192q0 13-9.5 22.5t-22.5 9.5h-1088q-13 0-22.5-9.5t-9.5-22.5v-192q0-13 9.5-22.5t22.5-9.5h1088q13 0 22.5 9.5t9.5 22.5zm0-384v192q0 13-9.5 22.5t-22.5 9.5h-1728q-13 0-22.5-9.5t-9.5-22.5v-192q0-13 9.5-22.5t22.5-9.5h1728q13 0 22.5 9.5t9.5 22.5z"/>
    </symbol>
    <symbol id="icon-fa-copy" viewBox="0 0 1792 1792">
        <path fill="currentColor" d="M1696 384q40 0 68 28t28 68v1216q0 40-28 68t-68 28h-960q-40 0-68-28t-28-68v-288h-544q-40 0-68-28t-28-68v-672q0-40 20-88t48-76l408-408q28-28 76-48t88-20h416q40 0 68 28t28 68v328q68-40 128-40h416zm-544 213l-299 299h299v-299zm-640-384l-299 299h299v-299zm196 647l316-316v-416h-384v416q0 40-28 68t-68 28h-416v640h512v-256q0-40 20-88t48-76zm956 804v-1152h-384v416q0 40-28 68t-68 28h-416v640h896z"/>
    </symbol>
    <symbol id="icon-fa-paste" viewBox="0 0 1792 1792">
        <path fill="currentColor" d="M768 1664h896v-640h-416q-40 0-68-28t-28-68v-416h-384v1152zm256-1440v-64q0-13-9.5-22.5t-22.5-9.5h-704q-13 0-22.5 9.5t-9.5 22.5v64q0 13 9.5 22.5t22.5 9.5h704q13 0 22.5-9.5t9.5-22.5zm256 672h299l-299-299v299zm512 128v672q0 40-28 68t-68 28h-960q-40 0-68-28t-28-68v-160h-544q-40 0-68-28t-28-68v-1344q0-40 28-68t68-28h1088q40 0 68 28t28 68v328q21 13 36 28l408 408q28 28 48 76t20 88z"/>
    </symbol>
    <symbol id="icon-fa-code" viewBox="0 0 1792 1792">
        <path fill="currentColor" d="M553 1399l-50 50q-10 10-23 10t-23-10l-466-466q-10-10-10-23t10-23l466-466q10-10 23-10t23 10l50 50q10 10 10 23t-10 23l-393 393 393 393q10 10 10 23t-10 23zm591-1067l-373 1291q-4 13-15.5 19.5t-23.5 2.5l-62-17q-13-4-19.5-15.5t-2.5-24.5l373-1291q4-13 15.5-19.5t23.5-2.5l62 17q13 4 19.5 15.5t2.5 24.5zm657 651l-466 466q-10 10-23 10t-23-10l-50-50q-10-10-10-23t10-23l393-393-393-393q-10-10-10-23t10-23l50-50q10-10 23-10t23 10l466 466q10 10 10 23t-10 23z"/>
    </symbol>
</svg>
